Coordinates
version=1
nRows=21
nColumns=12
inDegrees=yes

Units are S.I. units (second, meters, Newtons, ...)
Angles are in degrees

endheader
time	SC_y	SC_z	SC_x	AC_y	AC_z	AC_x	GH_y	GH_z	GH_yy	EL_x	PS_y
       0.0              -58.16          33.18          64.07          61.94         -4.151          -4.45        -0.1239          78.47          61.91          107.7          49.82
  0.009629              -58.16          33.18          64.07          61.94          -4.15         -4.448        -0.1191          78.46          61.91          107.7          49.83
   0.01926              -58.15          33.17          64.07          61.94         -4.148         -4.445        -0.1141          78.45          61.91          107.7          49.83
   0.02889              -58.15          33.16          64.08          61.94         -4.146         -4.441        -0.1087          78.44           61.9          107.7          49.84
   0.03852              -58.14          33.16          64.08          61.93         -4.143         -4.438        -0.1029          78.43           61.9          107.6          49.85
   0.04815              -58.14          33.15          64.09          61.93         -4.141         -4.435       -0.09683          78.42           61.9          107.6          49.86
   0.05777              -58.13          33.15          64.09          61.93         -4.139         -4.431        -0.0903          78.41           61.9          107.6          49.87
    0.0674              -58.13          33.14          64.09          61.93         -4.136         -4.427       -0.08331          78.39          61.89          107.6          49.88
   0.07703              -58.12          33.13           64.1          61.93         -4.133         -4.422       -0.07583          78.38          61.89          107.6           49.9
   0.08666              -58.12          33.12           64.1          61.93          -4.13         -4.418       -0.06781          78.36          61.89          107.6          49.91
   0.09629              -58.11          33.11          64.11          61.93         -4.127         -4.413       -0.05919          78.35          61.88          107.6          49.92
    0.1059              -58.11           33.1          64.11          61.93         -4.123         -4.407       -0.04991          78.33          61.88          107.6          49.94
    0.1155               -58.1          33.09          64.12          61.93         -4.119         -4.402       -0.03991          78.31          61.87          107.6          49.95
    0.1252              -58.09          33.08          64.13          61.92         -4.115         -4.395       -0.02911          78.29          61.87          107.6          49.97
    0.1348              -58.08          33.07          64.13          61.92         -4.111         -4.389       -0.01742          78.26          61.86          107.6          49.99
    0.1444              -58.07          33.06          64.14          61.92         -4.106         -4.381      -0.004743          78.24          61.86          107.6          50.01
    0.1541              -58.06          33.04          64.15          61.92         -4.101         -4.373       0.009034          78.21          61.85          107.6          50.03
    0.1637              -58.05          33.03          64.16          61.92         -4.095         -4.365        0.02404          78.18          61.85          107.6          50.06
    0.1733              -58.04          33.01          64.17          61.92         -4.089         -4.355        0.04043          78.15          61.84          107.5          50.09
     0.183              -58.03          32.99          64.18          61.91         -4.082         -4.345        0.05838          78.12          61.83          107.5          50.11
    0.1926              -58.01          32.97          64.19          61.91         -4.075         -4.333        0.07808          78.08          61.82          107.5          50.15
